<svg width="1200" height="800" viewBox="0 0 1200 800" fill="none" xmlns="http://www.w3.org/2000/svg">
  <rect width="1200" height="800" fill="#0F172A"/>
  <rect x="56" y="56" width="1088" height="688" rx="32" fill="#064E3B"/>
  <rect x="96" y="120" width="560" height="24" rx="12" fill="#A7F3D0" fill-opacity="0.9"/>
  <rect x="96" y="164" width="420" height="16" rx="8" fill="#D1FAE5" fill-opacity="0.8"/>
  <rect x="96" y="198" width="480" height="16" rx="8" fill="#D1FAE5" fill-opacity="0.7"/>
  <rect x="96" y="240" width="420" height="220" rx="20" fill="#ECFDF5" fill-opacity="0.15" stroke="#A7F3D0"/>
  <path d="M120 420L200 340L280 390L360 300L440 340L520 260" stroke="#A7F3D0" stroke-width="8" stroke-linecap="round"/>
  <rect x="680" y="120" width="420" height="280" rx="24" fill="#ECFDF5" fill-opacity="0.12" stroke="#A7F3D0"/>
  <circle cx="780" cy="220" r="44" fill="#34D399" fill-opacity="0.8"/>
  <rect x="850" y="180" width="210" height="18" rx="9" fill="#D1FAE5"/>
  <rect x="850" y="214" width="180" height="14" rx="7" fill="#D1FAE5" fill-opacity="0.8"/>
  <rect x="850" y="244" width="150" height="14" rx="7" fill="#D1FAE5" fill-opacity="0.7"/>
  <rect x="680" y="436" width="420" height="244" rx="24" fill="#ECFDF5" fill-opacity="0.12" stroke="#A7F3D0"/>
  <rect x="720" y="484" width="340" height="20" rx="10" fill="#D1FAE5"/>
  <rect x="720" y="520" width="300" height="16" rx="8" fill="#D1FAE5" fill-opacity="0.85"/>
  <rect x="720" y="552" width="240" height="16" rx="8" fill="#D1FAE5" fill-opacity="0.75"/>
</svg>
